<svg width="20" height="20" viewBox="0 0 20 20" fill="none" xmlns="http://www.w3.org/2000/svg">
<path d="M9.59466 18.2427L10 18.804L10.4053 18.2427C10.8551 17.62 11.245 16.9704 11.5745 16.294C11.9055 15.6145 12.1746 14.8935 12.3824 14.1316L12.5546 13.5H11.9H8.1H7.44537L7.61762 14.1316C7.82541 14.8935 8.09449 15.6145 8.4255 16.294C8.75504 16.9704 9.14492 17.62 9.59466 18.2427ZM7.247 18.026L8.438 18.4088L7.83895 17.3106C7.54991 16.7807 7.29688 16.2305 7.07985 15.6598C6.86282 15.0891 6.68165 14.4975 6.53654 13.8848L6.44541 13.5H6.05H3.1H2.23199L2.66748 14.2509C3.179 15.1328 3.8197 15.9019 4.58855 16.5559C5.36523 17.2165 6.25289 17.7065 7.247 18.026ZM12.1611 17.3106L11.562 18.4088L12.753 18.026C13.7471 17.7065 14.6348 17.2165 15.4115 16.5559C16.1803 15.9019 16.821 15.1328 17.3325 14.2509L17.768 13.5H16.9H13.95H13.5546L13.4635 13.8848C13.3183 14.4975 13.1372 15.0891 12.9202 15.6598C12.7031 16.2305 12.4501 16.7807 12.1611 17.3106ZM1.76493 12.1213L1.85961 12.5H2.25H5.65H6.23059L6.14447 11.9258C6.09619 11.604 6.06007 11.2868 6.03603 10.9742C6.01208 10.6628 6 10.3381 6 10C6 9.66187 6.01208 9.3372 6.03603 9.02585C6.06007 8.71323 6.09619 8.39602 6.14447 8.07417L6.23059 7.5H5.65H2.25H1.85961L1.76493 7.87873C1.67707 8.23015 1.61083 8.57858 1.56656 8.92392C1.52201 9.27138 1.5 9.63017 1.5 10C1.5 10.3698 1.52201 10.7286 1.56656 11.0761C1.61083 11.4214 1.67707 11.7699 1.76493 12.1213ZM7.15553 12.0742L7.21941 12.5H7.65H12.35H12.7806L12.8445 12.0742C12.8962 11.7294 12.9351 11.3882 12.961 11.0508C12.9871 10.7122 13 10.3619 13 10C13 9.63813 12.9871 9.2878 12.961 8.94915C12.9351 8.61177 12.8962 8.27065 12.8445 7.92583L12.7806 7.5H12.35H7.65H7.21941L7.15553 7.92583C7.10381 8.27065 7.06493 8.61177 7.03897 8.94915C7.01292 9.2878 7 9.63813 7 10C7 10.3619 7.01292 10.7122 7.03897 11.0508C7.06493 11.3882 7.10381 11.7294 7.15553 12.0742ZM13.8555 11.9258L13.7694 12.5H14.35H17.75H18.1404L18.2351 12.1213C18.3229 11.7699 18.3892 11.4214 18.4334 11.0761C18.478 10.7286 18.5 10.3698 18.5 10C18.5 9.63017 18.478 9.27138 18.4334 8.92392C18.3892 8.57858 18.3229 8.23015 18.2351 7.87873L18.1404 7.5H17.75H14.35H13.7694L13.8555 8.07417C13.9038 8.39602 13.9399 8.71323 13.964 9.02585C13.9879 9.3372 14 9.66187 14 10C14 10.3381 13.9879 10.6628 13.964 10.9742C13.9399 11.2868 13.9038 11.604 13.8555 11.9258ZM13.4635 6.11523L13.5546 6.5H13.95H16.9H17.768L17.3325 5.74914C16.821 4.86722 16.1803 4.0981 15.4115 3.44414C14.6348 2.78352 13.7471 2.29352 12.753 1.97399L11.562 1.59116L12.1611 2.68943C12.4501 3.21932 12.7031 3.76952 12.9202 4.34022C13.1372 4.91094 13.3183 5.50253 13.4635 6.11523ZM7.61762 5.86844L7.44537 6.5H8.1H11.9H12.5546L12.3824 5.86844C12.1746 5.10654 11.9055 4.38546 11.5745 3.70602C11.245 3.0296 10.8551 2.37998 10.4053 1.75725L10 1.19602L9.59466 1.75725C9.14492 2.37998 8.75504 3.0296 8.4255 3.70602C8.09449 4.38546 7.82541 5.10654 7.61762 5.86844ZM2.66748 5.74914L2.23199 6.5H3.1H6.05H6.44541L6.53654 6.11523C6.68165 5.50253 6.86282 4.91094 7.07985 4.34022C7.29688 3.76952 7.54991 3.21932 7.83895 2.68943L8.438 1.59116L7.247 1.97399C6.25289 2.29352 5.36523 2.78352 4.58855 3.44414C3.8197 4.0981 3.179 4.86722 2.66748 5.74914ZM10 19.5C8.69928 19.5 7.47523 19.2506 6.3231 18.7534C5.16259 18.2526 4.15329 17.5712 3.29105 16.7089C2.42882 15.8467 1.74735 14.8374 1.24658 13.6769C0.74943 12.5248 0.5 11.3007 0.5 10C0.5 8.68173 0.749762 7.45408 1.24609 6.31175C1.74672 5.15948 2.42825 4.15386 3.29105 3.29105C4.15329 2.42882 5.16259 1.74735 6.3231 1.24658C7.47523 0.74943 8.69928 0.5 10 0.5C11.3183 0.5 12.5459 0.749762 13.6883 1.24609C14.8405 1.74672 15.8461 2.42825 16.7089 3.29105C17.5717 4.15386 18.2533 5.15948 18.7539 6.31175C19.2502 7.45408 19.5 8.68173 19.5 10C19.5 11.3007 19.2506 12.5248 18.7534 13.6769C18.2526 14.8374 17.5712 15.8467 16.7089 16.7089C15.8461 17.5717 14.8405 18.2533 13.6883 18.7539C12.5459 19.2502 11.3183 19.5 10 19.5Z" stroke="#ABB2BF"/>
</svg>
