<?xml version="1.0" encoding="utf-8"?>
<!-- Generator: Adobe Illustrator 27.5.0, SVG Export Plug-In . SVG Version: 6.00 Build 0)  -->
<svg version="1.1" xmlns="http://www.w3.org/2000/svg" xmlns:xlink="http://www.w3.org/1999/xlink" x="0px" y="0px"
	 viewBox="0 0 500 500" style="enable-background:new 0 0 500 500;" xml:space="preserve">
<g id="Background_Simple">
	<g>
		<path style="fill:#92E3A9;" d="M442.331,96.931v1.2c-2.192-4.734-4.297-8.66-6.25-11.627
			C438.503,89.984,440.564,93.485,442.331,96.931z"/>
	</g>
	
		<line style="fill:none;stroke:#263238;stroke-linecap:round;stroke-linejoin:round;stroke-miterlimit:10;" x1="66.313" y1="393.034" x2="47.248" y2="393.034"/>
	<g>
		<path style="fill:#92E3A9;" d="M479.557,318.463c-2.716,34.39-10.907,62.344-27.987,83.733l-9.238-9.162H66.313
			c-37.193-39.014-26.58-153.843,91.597-168c124.394-14.899,95.97-179.78,193.85-177.784c45.569,0.938,70.557,19.545,84.256,39.167
			c0.022,0.011,0.033,0.033,0.044,0.055c0.011,0.011,0.011,0.022,0.022,0.033c1.952,2.967,4.057,6.893,6.25,11.627
			C460.993,138.563,485.861,238.635,479.557,318.463z"/>
		<path style="opacity:0.7;fill:#FFFFFF;" d="M479.557,318.463c-2.716,34.39-10.907,62.344-27.987,83.733l-9.238-9.162H66.313
			c-37.193-39.014-26.58-153.843,91.597-168c124.394-14.899,95.97-179.78,193.85-177.784c45.569,0.938,70.557,19.545,84.256,39.167
			c0.022,0.011,0.033,0.033,0.044,0.055c0.011,0.011,0.011,0.022,0.022,0.033c1.952,2.967,4.057,6.893,6.25,11.627
			C460.993,138.563,485.861,238.635,479.557,318.463z"/>
	</g>
</g>
<g id="Shadow">
	<path style="fill:#999999;" d="M451.569,402.196c-27.235,34.106-83.24,51.3-169.353,54.874
		c-112.415,4.665-163.866-16.329-215.903-64.036h376.018L451.569,402.196z"/>
</g>
<g id="Room">
	<g>
		<g>
			
				<line style="fill:none;stroke:#263238;stroke-linecap:round;stroke-linejoin:round;stroke-miterlimit:10;" x1="20.93" y1="393.032" x2="437.97" y2="393.032"/>
			<polyline style="fill:none;stroke:#263238;stroke-linecap:round;stroke-linejoin:round;stroke-miterlimit:10;" points="
				442.332,82.8 442.332,393.032 469.9,420.6 			"/>
		</g>
		<g id="Lamp">
			
				<line style="fill:none;stroke:#263238;stroke-linecap:round;stroke-linejoin:round;stroke-miterlimit:10;" x1="359.978" y1="101.171" x2="359.978" y2="47.232"/>
			<g>
				<path style="fill:none;stroke:#263238;stroke-linecap:round;stroke-linejoin:round;stroke-miterlimit:10;" d="M336.702,124.446
					c0-12.855,10.421-23.276,23.276-23.276s23.276,10.421,23.276,23.276H336.702z"/>
			</g>
		</g>
	</g>
</g>
<g id="Shelf">
	<g>
		
			<rect x="123.585" y="268.797" style="fill:none;stroke:#263238;stroke-linecap:round;stroke-linejoin:round;stroke-miterlimit:10;" width="19.993" height="124.24"/>
		
			<rect x="35.664" y="278.016" style="fill:none;stroke:#263238;stroke-linecap:round;stroke-linejoin:round;stroke-miterlimit:10;" width="80.77" height="30.171"/>
		
			<rect x="35.664" y="311.482" style="fill:none;stroke:#263238;stroke-linecap:round;stroke-linejoin:round;stroke-miterlimit:10;" width="80.77" height="30.171"/>
		
			<rect x="35.664" y="344.949" style="fill:none;stroke:#263238;stroke-linecap:round;stroke-linejoin:round;stroke-miterlimit:10;" width="80.77" height="30.171"/>
		<path style="fill:none;stroke:#263238;stroke-linecap:round;stroke-linejoin:round;stroke-miterlimit:10;" d="M67.55,280.197
			c0,1.859,1.507,3.365,3.365,3.365c1.328,0,8.941,0,10.269,0c1.858,0,3.365-1.506,3.365-3.365"/>
		<path style="fill:none;stroke:#263238;stroke-linecap:round;stroke-linejoin:round;stroke-miterlimit:10;" d="M67.55,313.664
			c0,1.859,1.507,3.365,3.365,3.365c1.328,0,8.941,0,10.269,0c1.858,0,3.365-1.506,3.365-3.365"/>
		<path style="fill:none;stroke:#263238;stroke-linecap:round;stroke-linejoin:round;stroke-miterlimit:10;" d="M67.55,347.13
			c0,1.858,1.507,3.365,3.365,3.365c1.328,0,8.941,0,10.269,0c1.858,0,3.365-1.506,3.365-3.365"/>
		<polyline style="fill:none;stroke:#263238;stroke-linecap:round;stroke-linejoin:round;stroke-miterlimit:10;" points="
			120.313,393.037 29.124,393.037 29.124,268.797 120.313,268.797 		"/>
	</g>
</g>
<g id="Chair">
	<g>
		<path style="fill:none;stroke:#263238;stroke-linecap:round;stroke-linejoin:round;stroke-miterlimit:10;" d="M198.198,332.716v47
			l24.615,8.673c0.629,0.221,1.049,0.815,1.049,1.482v1.454c0,1.049-1.008,1.804-2.014,1.508l-25.276-7.426l-0.459,6.075
			c-0.066,0.874-0.794,1.548-1.67,1.548h-1.3c-0.876,0-1.604-0.675-1.67-1.548l-0.459-6.075l-25.276,7.426
			c-1.007,0.296-2.015-0.459-2.015-1.508v-1.454c0-0.667,0.421-1.261,1.049-1.482l24.615-8.673v-47"/>
		
			<line style="fill:none;stroke:#263238;stroke-linecap:round;stroke-linejoin:round;stroke-miterlimit:10;" x1="186.968" y1="315.697" x2="186.968" y2="302.084"/>
		
			<line style="fill:none;stroke:#263238;stroke-linecap:round;stroke-linejoin:round;stroke-miterlimit:10;" x1="181.203" y1="302.084" x2="181.203" y2="315.697"/>
		<path id="XMLID_18_" style="fill:none;stroke:#263238;stroke-linecap:round;stroke-linejoin:round;stroke-miterlimit:10;" d="
			M161.966,299.664c-4.094-0.169-6.962-2.829-6.962-7.421c0-9.54,0-14.31,0-23.85c0-2.695,2.099-5.754,4.744-6.615"/>
		<path style="fill:none;stroke:#263238;stroke-linecap:round;stroke-linejoin:round;stroke-miterlimit:10;" d="M160.87,265.366
			c0,10.71,0,16.065,0,26.775c0,4.617,3.687,7.173,8.34,6.348c9.486-1.896,21.236-1.378,30.517,1.344
			c4.584,1.237,8.18-0.986,8.18-5.603c0-10.71,0-16.065,0-26.775c0-2.177-1.696-4.646-3.826-5.371
			c-12.632-4.293-26.34-4.899-39.301-1.738C162.608,260.878,160.87,263.189,160.87,265.366z"/>
		<path id="XMLID_17_" style="fill:none;stroke:#263238;stroke-linecap:round;stroke-linejoin:round;stroke-miterlimit:10;" d="
			M179.748,317.675H166.45c-4.715,0-8.538,3.822-8.538,8.537l0,0c0,2.16,1.751,3.911,3.911,3.911h15.471"/>
		<path style="fill:none;stroke:#263238;stroke-linecap:round;stroke-linejoin:round;stroke-miterlimit:10;" d="M181.842,330.124
			h43.919c2.16,0,3.911-1.751,3.911-3.911l0,0c0-4.715-3.822-8.537-8.537-8.537h-34.666c-4.715,0-8.537,3.822-8.537,8.537l0,0
			C177.931,328.373,179.682,330.124,181.842,330.124z"/>
	</g>
</g>
<g id="Desk">
	<g>
		<g>
			<path style="fill:none;stroke:#263238;stroke-linecap:round;stroke-linejoin:round;stroke-miterlimit:10;" d="M388.626,247.84
				c1.055,0,2.002-0.855,2.115-1.91l4.381-40.77c0.113-1.055-0.65-1.91-1.705-1.91"/>
			<g>
				
					<rect x="280.298" y="272.272" transform="matrix(-1 -1.224647e-16 1.224647e-16 -1 701.5361 557.6262)" style="fill:none;stroke:#263238;stroke-linecap:round;stroke-linejoin:round;stroke-miterlimit:10;" width="140.941" height="13.081"/>
				<polyline style="fill:none;stroke:#263238;stroke-linecap:round;stroke-linejoin:round;stroke-miterlimit:10;" points="
					230.126,272.272 230.126,285.354 278.116,285.354 				"/>
			</g>
			<polyline style="fill:none;stroke:#263238;stroke-linecap:round;stroke-linejoin:round;stroke-miterlimit:10;" points="
				425.768,270.874 425.768,262.694 288.34,262.694 			"/>
			
				<rect x="225.596" y="262.694" transform="matrix(-1 -1.224647e-16 1.224647e-16 -1 511.7547 533.5681)" style="fill:none;stroke:#263238;stroke-linecap:round;stroke-linejoin:round;stroke-miterlimit:10;" width="60.563" height="8.18"/>
			<g>
				<g>
					<polyline style="fill:none;stroke:#263238;stroke-linecap:round;stroke-linejoin:round;stroke-miterlimit:10;" points="
						413.594,287.535 413.594,393.032 416.644,393.032 417.735,287.535 					"/>
					<polyline style="fill:none;stroke:#263238;stroke-linecap:round;stroke-linejoin:round;stroke-miterlimit:10;" points="
						409.453,287.535 410.543,393.032 413.594,393.032 413.594,287.535 					"/>
				</g>
				<g>
					<polyline style="fill:none;stroke:#263238;stroke-linecap:round;stroke-linejoin:round;stroke-miterlimit:10;" points="
						373.289,287.535 373.289,393.032 376.34,393.032 377.43,287.535 					"/>
					<polyline style="fill:none;stroke:#263238;stroke-linecap:round;stroke-linejoin:round;stroke-miterlimit:10;" points="
						369.148,287.535 370.239,393.032 373.289,393.032 373.289,287.535 					"/>
				</g>
				<g>
					<polyline style="fill:none;stroke:#263238;stroke-linecap:round;stroke-linejoin:round;stroke-miterlimit:10;" points="
						278.075,287.535 278.075,393.032 281.125,393.032 282.216,287.535 					"/>
					<polyline style="fill:none;stroke:#263238;stroke-linecap:round;stroke-linejoin:round;stroke-miterlimit:10;" points="
						273.934,287.535 275.024,393.032 278.075,393.032 278.075,287.535 					"/>
				</g>
				<g>
					<polyline style="fill:none;stroke:#263238;stroke-linecap:round;stroke-linejoin:round;stroke-miterlimit:10;" points="
						237.77,287.535 237.77,393.032 240.821,393.032 241.911,287.535 					"/>
					<polyline style="fill:none;stroke:#263238;stroke-linecap:round;stroke-linejoin:round;stroke-miterlimit:10;" points="
						233.629,287.535 234.719,393.032 237.77,393.032 237.77,287.535 					"/>
				</g>
			</g>
			
				<rect x="311.309" y="260.149" style="fill:none;stroke:#263238;stroke-linecap:round;stroke-linejoin:round;stroke-miterlimit:10;" width="29.649" height="2.545"/>
			<g>
				<path style="fill:none;stroke:#263238;stroke-linecap:round;stroke-linejoin:round;stroke-miterlimit:10;" d="M388.565,262.694
					h6.879c0.957,0,1.733-0.776,1.733-1.733v-2.176h-10.344v2.176C386.832,261.918,387.608,262.694,388.565,262.694z"/>
				<path style="fill:none;stroke:#263238;stroke-linecap:round;stroke-linejoin:round;stroke-miterlimit:10;" d="M397.176,258.802
					c0-1.485-2.316-2.689-5.172-2.689c-2.856,0-5.172,1.204-5.172,2.689H397.176z"/>
				<path style="fill:none;stroke:#263238;stroke-linecap:round;stroke-linejoin:round;stroke-miterlimit:10;" d="M386.832,258.802
					c0-1.485,2.315-2.689,5.172-2.689v2.689H386.832z"/>
			</g>
			<path style="fill:none;stroke:#263238;stroke-linecap:round;stroke-linejoin:round;stroke-miterlimit:10;" d="M386.485,247.84
				H328.68c-1.055,0-1.818-0.855-1.704-1.91l4.381-40.77c0.113-1.055,1.06-1.91,2.115-1.91h57.805c1.055,0,1.818,0.855,1.705,1.91
				l-4.381,40.77C388.486,246.985,387.54,247.84,386.485,247.84z"/>
			<polyline style="fill:none;stroke:#263238;stroke-linecap:round;stroke-linejoin:round;stroke-miterlimit:10;" points="
				365.94,248.931 366.926,258.106 369.108,258.106 368.122,248.931 			"/>
			<polyline style="fill:none;stroke:#263238;stroke-linecap:round;stroke-linejoin:round;stroke-miterlimit:10;" points="
				351.761,248.931 352.747,258.106 366.926,258.106 365.94,248.931 			"/>
			<path style="fill:none;stroke:#263238;stroke-linecap:round;stroke-linejoin:round;stroke-miterlimit:10;" d="M384.071,244.892
				h-52.343c-0.915,0-1.577-0.742-1.479-1.657l3.802-35.379c0.098-0.915,0.92-1.657,1.835-1.657h52.343
				c0.915,0,1.577,0.742,1.479,1.657l-3.801,35.379C385.808,244.15,384.986,244.892,384.071,244.892z"/>
			
				<rect x="342.548" y="258.106" style="fill:none;stroke:#263238;stroke-linecap:round;stroke-linejoin:round;stroke-miterlimit:10;" width="28.747" height="4.588"/>
			
				<rect x="371.296" y="258.106" style="fill:none;stroke:#263238;stroke-linecap:round;stroke-linejoin:round;stroke-miterlimit:10;" width="8.411" height="4.588"/>
		</g>
		<g>
			
				<rect x="312.848" y="214.854" style="fill:#FFFFFF;stroke:#263238;stroke-linecap:round;stroke-linejoin:round;stroke-miterlimit:10;" width="94.149" height="21.208"/>
			<g>
				<g>
					<path style="fill:#263238;" d="M324.229,227.676l-1.521-1.16l0.249,1.865c0.068,0.506-0.326,0.956-0.836,0.956l0,0
						c-0.51,0-0.904-0.45-0.836-0.956l0.249-1.865l-1.521,1.16c-0.403,0.308-0.985,0.192-1.241-0.246l-0.021-0.036
						c-0.257-0.44-0.068-1.006,0.402-1.203l1.745-0.732l-1.745-0.732c-0.47-0.197-0.659-0.763-0.402-1.203l0.021-0.036
						c0.256-0.438,0.837-0.554,1.241-0.246l1.52,1.16l-0.249-1.865c-0.068-0.506,0.326-0.956,0.836-0.956l0,0
						c0.51,0,0.904,0.45,0.836,0.956l-0.249,1.865l1.52-1.16c0.403-0.308,0.985-0.192,1.241,0.246l0.021,0.036
						c0.257,0.44,0.068,1.006-0.402,1.203l-1.745,0.732l1.745,0.732c0.47,0.197,0.659,0.763,0.402,1.203l-0.021,0.036
						C325.214,227.868,324.632,227.984,324.229,227.676z"/>
				</g>
				<g>
					<path style="fill:#263238;" d="M337.801,227.676l-1.521-1.16l0.249,1.865c0.068,0.506-0.326,0.956-0.836,0.956l0,0
						c-0.51,0-0.904-0.45-0.836-0.956l0.249-1.865l-1.521,1.16c-0.403,0.308-0.985,0.192-1.241-0.246l-0.021-0.036
						c-0.257-0.44-0.068-1.006,0.402-1.203l1.745-0.732l-1.745-0.732c-0.47-0.197-0.659-0.763-0.402-1.203l0.021-0.036
						c0.256-0.438,0.837-0.554,1.241-0.246l1.52,1.16l-0.249-1.865c-0.068-0.506,0.326-0.956,0.836-0.956l0,0
						c0.51,0,0.904,0.45,0.836,0.956l-0.249,1.865l1.52-1.16c0.403-0.308,0.985-0.192,1.241,0.246l0.021,0.036
						c0.257,0.44,0.067,1.006-0.402,1.203l-1.745,0.732l1.745,0.732c0.47,0.197,0.659,0.763,0.402,1.203l-0.021,0.036
						C338.786,227.868,338.204,227.984,337.801,227.676z"/>
				</g>
				<g>
					<path style="fill:#263238;" d="M351.373,227.676l-1.521-1.16l0.249,1.865c0.068,0.506-0.326,0.956-0.836,0.956l0,0
						c-0.51,0-0.904-0.45-0.836-0.956l0.249-1.865l-1.521,1.16c-0.403,0.308-0.985,0.192-1.241-0.246l-0.021-0.036
						c-0.257-0.44-0.068-1.006,0.402-1.203l1.745-0.732l-1.745-0.732c-0.47-0.197-0.659-0.763-0.402-1.203l0.021-0.036
						c0.256-0.438,0.837-0.554,1.241-0.246l1.52,1.16l-0.249-1.865c-0.068-0.506,0.326-0.956,0.836-0.956l0,0
						c0.51,0,0.904,0.45,0.836,0.956l-0.249,1.865l1.52-1.16c0.403-0.308,0.985-0.192,1.241,0.246l0.021,0.036
						c0.257,0.44,0.068,1.006-0.402,1.203l-1.745,0.732l1.745,0.732c0.47,0.197,0.659,0.763,0.402,1.203l-0.021,0.036
						C352.358,227.868,351.777,227.984,351.373,227.676z"/>
				</g>
				<g>
					<path style="fill:#263238;" d="M364.945,227.676l-1.521-1.16l0.249,1.865c0.067,0.506-0.326,0.956-0.836,0.956l0,0
						c-0.51,0-0.904-0.45-0.836-0.956l0.249-1.865l-1.521,1.16c-0.403,0.308-0.985,0.192-1.241-0.246l-0.021-0.036
						c-0.257-0.44-0.068-1.006,0.402-1.203l1.745-0.732l-1.745-0.732c-0.47-0.197-0.659-0.763-0.402-1.203l0.021-0.036
						c0.256-0.438,0.837-0.554,1.241-0.246l1.52,1.16l-0.249-1.865c-0.068-0.506,0.326-0.956,0.836-0.956l0,0
						c0.51,0,0.904,0.45,0.836,0.956l-0.249,1.865l1.52-1.16c0.404-0.308,0.985-0.192,1.241,0.246l0.021,0.036
						c0.257,0.44,0.068,1.006-0.402,1.203l-1.745,0.732l1.745,0.732c0.47,0.197,0.659,0.763,0.402,1.203l-0.021,0.036
						C365.931,227.868,365.349,227.984,364.945,227.676z"/>
				</g>
				<g>
					<path style="fill:#263238;" d="M378.518,227.676l-1.521-1.16l0.249,1.865c0.068,0.506-0.326,0.956-0.836,0.956l0,0
						c-0.51,0-0.904-0.45-0.836-0.956l0.249-1.865l-1.521,1.16c-0.403,0.308-0.985,0.192-1.24-0.246l-0.021-0.036
						c-0.257-0.44-0.068-1.006,0.402-1.203l1.745-0.732l-1.745-0.732c-0.47-0.197-0.659-0.763-0.402-1.203l0.021-0.036
						c0.256-0.438,0.837-0.554,1.241-0.246l1.52,1.16l-0.249-1.865c-0.068-0.506,0.326-0.956,0.836-0.956l0,0
						c0.51,0,0.904,0.45,0.836,0.956l-0.249,1.865l1.52-1.16c0.403-0.308,0.985-0.192,1.241,0.246l0.021,0.036
						c0.257,0.44,0.068,1.006-0.402,1.203l-1.745,0.732l1.745,0.732c0.47,0.197,0.659,0.763,0.402,1.203l-0.021,0.036
						C379.503,227.868,378.921,227.984,378.518,227.676z"/>
				</g>
				<g>
					<path style="fill:#FFFFFF;stroke:#263238;stroke-linecap:round;stroke-linejoin:round;stroke-miterlimit:10;" d="
						M401.208,225.459c0,0-2.764,3.455-6.174,3.455c-3.41,0-6.174-3.455-6.174-3.455s2.764-3.455,6.174-3.455
						C398.444,222.004,401.208,225.459,401.208,225.459z"/>
					<path style="fill:#999999;stroke:#263238;stroke-linecap:round;stroke-linejoin:round;stroke-miterlimit:10;" d="
						M397.155,225.459c0,1.172-0.95,2.121-2.121,2.121c-1.172,0-2.121-0.95-2.121-2.121s0.95-2.122,2.121-2.122
						C396.206,223.337,397.155,224.287,397.155,225.459z"/>
				</g>
			</g>
		</g>
	</g>
</g>
<g id="Plant">
	<g>
		<g>
			<g>
				<path style="fill:#92E3A9;" d="M377.382,317.864c0,0-11.452,23.645-21.515,11.649c-10.064-11.996,6.94-16.507,6.94-16.507
					s-20.474,2.429-20.474-8.676c0-11.105,14.575-4.164,14.575-4.164s-18.942-14.771-9.717-21.001
					c6.42-4.336,21.862,11.332,21.862,11.332s-5.899-15.316,1.041-15.663c6.94-0.347,11.452,21.862,11.452,21.862
					s3.817-16.368,10.758-11.654c6.94,4.714-5.455,22.892-5.455,22.892s8.925-8.809,11.354-2.562
					c2.429,6.246-11.354,10.411-11.354,10.411s-0.098,22.903-7.732,20.127C371.483,333.133,377.382,317.864,377.382,317.864z"/>
				<path style="fill:none;stroke:#263238;stroke-linecap:round;stroke-linejoin:round;stroke-miterlimit:10;" d="M401.791,369.223
					c0,0,0-52.747-31.379-68.71"/>
				<path style="fill:none;stroke:#263238;stroke-linecap:round;stroke-linejoin:round;stroke-miterlimit:10;" d="M381.63,308.929
					c0,0-8.759,1.563-18.649,12.32"/>
				<path style="fill:none;stroke:#263238;stroke-linecap:round;stroke-linejoin:round;stroke-miterlimit:10;" d="M375.495,303.606
					c0,0-9.651,2.949-19.021,1.88"/>
				<path style="fill:none;stroke:#263238;stroke-linecap:round;stroke-linejoin:round;stroke-miterlimit:10;" d="M378.223,305.719
					c0,0,6.447-3.789,10.264-12.234"/>
			</g>
			<g>
				<g>
					<defs>
						<path id="XMLID_16_" d="M436.906,333.406c0,0,9.663,19.951,18.154,9.829c8.491-10.122-5.856-13.928-5.856-13.928
							s17.275,2.049,17.275-7.32c0-9.37-12.298-3.514-12.298-3.514s15.983-12.463,8.199-17.72
							c-5.417-3.658-18.447,9.561-18.447,9.561s4.978-12.923-0.878-13.216c-5.856-0.293-9.662,18.447-9.662,18.447
							s-3.221-13.811-9.077-9.833c-5.856,3.977,4.602,19.315,4.602,19.315s-7.53-7.432-9.58-2.162c-2.05,5.27,9.58,8.784,9.58,8.784
							s0.082,19.325,6.524,16.982C441.884,346.289,436.906,333.406,436.906,333.406z"/>
					</defs>
					<use xlink:href="#XMLID_16_"  style="overflow:visible;fill:#92E3A9;"/>
					<clipPath id="XMLID_00000162336923075409912400000004633511292835127703_">
						<use xlink:href="#XMLID_16_"  style="overflow:visible;"/>
					</clipPath>
					<path style="opacity:0.1;clip-path:url(#XMLID_00000162336923075409912400000004633511292835127703_);" d="M436.906,333.406
						c0,0,9.663,19.951,18.154,9.829c8.491-10.122-5.856-13.928-5.856-13.928s17.275,2.049,17.275-7.32
						c0-9.37-12.298-3.514-12.298-3.514s15.983-12.463,8.199-17.72c-5.417-3.658-18.447,9.561-18.447,9.561
						s4.978-12.923-0.878-13.216c-5.856-0.293-9.662,18.447-9.662,18.447s-3.221-13.811-9.077-9.833
						c-5.856,3.977,4.602,19.315,4.602,19.315s-7.53-7.432-9.58-2.162c-2.05,5.27,9.58,8.784,9.58,8.784s0.082,19.325,6.524,16.982
						C441.884,346.289,436.906,333.406,436.906,333.406z"/>
				</g>
				<path style="fill:none;stroke:#263238;stroke-linecap:round;stroke-linejoin:round;stroke-miterlimit:10;" d="M435.741,322.418
					h-0.01c-13.65,9.85-15.6,44.03-15.6,44.03"/>
				<path style="fill:none;stroke:#263238;stroke-linecap:round;stroke-linejoin:round;stroke-miterlimit:10;" d="M431.71,326.385
					c0,0,7.423,2.394,14.515,9.758"/>
				<path style="fill:none;stroke:#263238;stroke-linecap:round;stroke-linejoin:round;stroke-miterlimit:10;" d="M440.152,305.719
					c0,7.462-4.419,16.7-4.419,16.7l3.234,1.012"/>
				<path style="fill:none;stroke:#263238;stroke-linecap:round;stroke-linejoin:round;stroke-miterlimit:10;" d="M441.64,324.216
					c0,0,8.229,1.841,14.475,0"/>
			</g>
			<g>
				<g>
					<defs>
						<path id="XMLID_15_" d="M407.548,281.963c0,0-23.105,0.943-21.66-11.378c1.214-10.348,17.575-3.432,17.575-3.432
							s-13.423-15.649-4.201-21.836c9.222-6.186,14.701,11.866,14.701,11.866s5.878-26.041,16.191-21.851
							c7.177,2.916-4.518,24.468-4.518,24.468s13.597-9.268,17.752-3.697c4.155,5.57-15.94,17.525-15.94,17.525
							s15.719-5.949,15.671,2.441c-0.048,8.39-22.049,8.223-22.049,8.223s12.287,2.504,8.453,8.001
							c-3.834,5.497-14.971-3.629-14.971-3.629s-15.048,10.886-16.996,2.999C395.608,283.777,407.548,281.963,407.548,281.963z"/>
					</defs>
					<use xlink:href="#XMLID_15_"  style="overflow:visible;fill:#92E3A9;"/>
					<clipPath id="XMLID_00000049198912539807530040000001973702964482298498_">
						<use xlink:href="#XMLID_15_"  style="overflow:visible;"/>
					</clipPath>
					<path style="opacity:0.2;clip-path:url(#XMLID_00000049198912539807530040000001973702964482298498_);fill:#FFFFFF;" d="
						M407.548,281.963c0,0-23.105,0.943-21.66-11.378c1.214-10.348,17.575-3.432,17.575-3.432s-13.423-15.649-4.201-21.836
						c9.222-6.186,14.701,11.866,14.701,11.866s5.878-26.041,16.191-21.851c7.177,2.916-4.518,24.468-4.518,24.468
						s13.597-9.268,17.752-3.697c4.155,5.57-15.94,17.525-15.94,17.525s15.719-5.949,15.671,2.441
						c-0.048,8.39-22.049,8.223-22.049,8.223s12.287,2.504,8.453,8.001c-3.834,5.497-14.971-3.629-14.971-3.629
						s-15.048,10.886-16.996,2.999C395.608,283.777,407.548,281.963,407.548,281.963z"/>
				</g>
				<path style="fill:none;stroke:#263238;stroke-linecap:round;stroke-linejoin:round;stroke-miterlimit:10;" d="M410.736,369.223
					c0,0-3.69-65.282,9.393-108.986"/>
				<path style="fill:none;stroke:#263238;stroke-linecap:round;stroke-linejoin:round;stroke-miterlimit:10;" d="M394.692,272.144
					c0,0,9.74-0.823,21.246,5.497"/>
				<path style="fill:none;stroke:#263238;stroke-linecap:round;stroke-linejoin:round;stroke-miterlimit:10;" d="M402.791,251.583
					c0,0,9.744,9.535,13.706,23.246"/>
				<path style="fill:none;stroke:#263238;stroke-linecap:round;stroke-linejoin:round;stroke-miterlimit:10;" d="M417.37,270.791
					c0,0,6.331-6.975,14.34-8.797"/>
			</g>
		</g>
		<g>
			<path style="fill:#FFFFFF;stroke:#263238;stroke-linecap:round;stroke-linejoin:round;stroke-miterlimit:10;" d="
				M435.526,362.764h-49.765l4.01,45.121c0.087,0.985,0.913,1.74,1.902,1.74l0,0l0.991,11.152c0.088,0.985,0.913,1.74,1.902,1.74
				h32.157c0.989,0,1.814-0.755,1.902-1.74l0.991-11.152h0c0.989,0,1.814-0.755,1.902-1.74L435.526,362.764z"/>
			<path style="fill:#263238;stroke:#263238;stroke-linecap:round;stroke-linejoin:round;stroke-miterlimit:10;" d="
				M435.848,366.447H385.44c-1.964,0-3.557-1.592-3.557-3.557l0,0c0-1.965,1.592-3.557,3.557-3.557h50.408
				c1.964,0,3.557,1.592,3.557,3.557l0,0C439.405,364.854,437.812,366.447,435.848,366.447z"/>
		</g>
		
			<line style="fill:none;stroke:#263238;stroke-linecap:round;stroke-linejoin:round;stroke-miterlimit:10;" x1="420.435" y1="409.764" x2="423.737" y2="409.764"/>
		
			<line style="fill:none;stroke:#263238;stroke-linecap:round;stroke-linejoin:round;stroke-miterlimit:10;" x1="397.541" y1="409.764" x2="417.134" y2="409.764"/>
	</g>
</g>
<g id="Device">
	<g>
		<path style="fill:#999999;stroke:#263238;stroke-linecap:round;stroke-linejoin:round;stroke-miterlimit:10;" d="M300.259,38.731
			h-13.628v260.676h13.628c4.521,0,8.186-3.665,8.186-8.185V46.916C308.445,42.395,304.78,38.731,300.259,38.731z"/>
		<path style="fill:#263238;stroke:#263238;stroke-linecap:round;stroke-linejoin:round;stroke-miterlimit:10;" d="M296.577,299.407
			H177.976c-4.145,0-7.505-3.36-7.505-7.505V46.235c0-4.145,3.36-7.505,7.505-7.505h118.601c4.145,0,7.505,3.36,7.505,7.505v245.666
			C304.082,296.047,300.722,299.407,296.577,299.407z"/>
		<g>
			<defs>
				<path id="XMLID_14_" d="M260.41,50.201L260.41,50.201c-0.418,3.289-3.216,5.755-6.532,5.755H219.54
					c-3.316,0-6.114-2.465-6.532-5.755l0,0c-0.418-3.289-3.216-5.755-6.532-5.755h-24.153c-3.636,0-6.584,2.948-6.584,6.584v236.078
					c0,3.636,2.948,6.584,6.584,6.584h109.906c3.636,0,6.584-2.948,6.584-6.584V51.03c0-3.636-2.948-6.584-6.584-6.584h-25.287
					C263.626,44.446,260.828,46.911,260.41,50.201z"/>
			</defs>
			<use xlink:href="#XMLID_14_"  style="overflow:visible;fill:#92E3A9;"/>
			<clipPath id="XMLID_00000116206085634895235670000012683097731587752607_">
				<use xlink:href="#XMLID_14_"  style="overflow:visible;"/>
			</clipPath>
			<polygon style="opacity:0.4;clip-path:url(#XMLID_00000116206085634895235670000012683097731587752607_);fill:#FFFFFF;" points="
				211.986,310.271 171.826,310.271 268.641,25.268 308.802,25.268 			"/>
			<polygon style="opacity:0.4;clip-path:url(#XMLID_00000116206085634895235670000012683097731587752607_);fill:#FFFFFF;" points="
				240.071,310.271 229.393,310.271 326.208,25.268 336.887,25.268 			"/>
			
				<use xlink:href="#XMLID_14_"  style="overflow:visible;fill:none;stroke:#263238;stroke-linecap:round;stroke-linejoin:round;stroke-miterlimit:10;"/>
		</g>
		<path style="fill:#92E3A9;stroke:#263238;stroke-linecap:round;stroke-linejoin:round;stroke-miterlimit:10;" d="M225.461,47.827
			c0,1.671-1.354,3.025-3.025,3.025c-1.671,0-3.025-1.354-3.025-3.025c0-1.671,1.354-3.025,3.025-3.025
			C224.106,44.802,225.461,46.156,225.461,47.827z"/>
		<path style="fill:#999999;stroke:#263238;stroke-linecap:round;stroke-linejoin:round;stroke-miterlimit:10;" d="M249.183,44.918
			c-0.978,0-14.201,0-15.179,0c-1.606,0-2.909,1.302-2.909,2.909c0,1.606,1.302,2.908,2.909,2.908c1.129,0,14.05,0,15.179,0
			c1.606,0,2.908-1.302,2.908-2.908C252.092,46.221,250.79,44.918,249.183,44.918z"/>
		<path style="fill:#999999;stroke:#263238;stroke-linecap:round;stroke-linejoin:round;stroke-miterlimit:10;" d="M251.045,280.865
			c-1.017,0-28.206,0-29.223,0c-1.671,0-3.025,1.354-3.025,3.025c0,1.671,1.354,3.025,3.025,3.025c1.175,0,28.049,0,29.223,0
			c1.671,0,3.025-1.354,3.025-3.025C254.07,282.219,252.715,280.865,251.045,280.865z"/>
		<g>
			<path style="fill:#263238;" d="M309.928,105.066c0-0.548,0-18.947,0-19.494c0-0.9-0.729-1.629-1.629-1.629
				c-0.9,0-1.629,0.729-1.629,1.629c0,0.632,0,18.862,0,19.494c0,0.9,0.729,1.629,1.629,1.629
				C309.199,106.695,309.928,105.965,309.928,105.066z"/>
			<path style="fill:#263238;" d="M309.928,119.547c0-0.548,0-5.942,0-6.49c0-0.899-0.729-1.629-1.629-1.629
				c-0.9,0-1.629,0.729-1.629,1.629c0,0.632,0,5.857,0,6.49c0,0.899,0.729,1.629,1.629,1.629
				C309.199,121.175,309.928,120.446,309.928,119.547z"/>
		</g>
		
			<rect x="165.846" y="133.928" style="fill:#FFFFFF;stroke:#263238;stroke-linecap:round;stroke-linejoin:round;stroke-miterlimit:10;" width="147.108" height="33.138"/>
		<g>
			<g>
				<path style="fill:#263238;" d="M183.629,153.962l-2.376-1.812l0.389,2.914c0.106,0.79-0.509,1.493-1.307,1.493l0,0
					c-0.797,0-1.412-0.702-1.307-1.493l0.389-2.914l-2.376,1.812c-0.63,0.48-1.539,0.3-1.938-0.384l-0.033-0.056
					c-0.401-0.688-0.106-1.572,0.629-1.88l2.726-1.144l-2.727-1.144c-0.734-0.308-1.03-1.192-0.629-1.88l0.033-0.057
					c0.399-0.685,1.308-0.865,1.939-0.384l2.376,1.813l-0.389-2.914c-0.105-0.79,0.509-1.493,1.307-1.493l0,0
					c0.798,0,1.413,0.703,1.307,1.493l-0.389,2.914l2.376-1.813c0.63-0.481,1.539-0.301,1.939,0.384l0.033,0.057
					c0.401,0.688,0.105,1.572-0.629,1.88l-2.727,1.144l2.726,1.144c0.734,0.308,1.03,1.192,0.629,1.88l-0.033,0.056
					C185.168,154.262,184.259,154.442,183.629,153.962z"/>
			</g>
			<g>
				<path style="fill:#263238;" d="M204.835,153.962l-2.376-1.812l0.389,2.914c0.106,0.79-0.509,1.493-1.307,1.493l0,0
					c-0.798,0-1.413-0.702-1.307-1.493l0.389-2.914l-2.376,1.812c-0.63,0.48-1.539,0.3-1.938-0.384l-0.033-0.056
					c-0.401-0.688-0.106-1.572,0.629-1.88l2.726-1.144l-2.727-1.144c-0.734-0.308-1.03-1.192-0.629-1.88l0.033-0.057
					c0.399-0.685,1.308-0.865,1.939-0.384l2.376,1.813l-0.389-2.914c-0.106-0.79,0.509-1.493,1.307-1.493l0,0
					c0.798,0,1.412,0.703,1.307,1.493l-0.389,2.914l2.376-1.813c0.63-0.481,1.539-0.301,1.939,0.384l0.033,0.057
					c0.401,0.688,0.105,1.572-0.629,1.88l-2.727,1.144l2.726,1.144c0.734,0.308,1.03,1.192,0.629,1.88l-0.033,0.056
					C206.374,154.262,205.466,154.442,204.835,153.962z"/>
			</g>
			<g>
				<path style="fill:#263238;" d="M226.042,153.962l-2.376-1.812l0.389,2.914c0.106,0.79-0.509,1.493-1.307,1.493l0,0
					c-0.798,0-1.412-0.702-1.307-1.493l0.389-2.914l-2.376,1.812c-0.63,0.48-1.539,0.3-1.938-0.384l-0.033-0.056
					c-0.401-0.688-0.106-1.572,0.629-1.88l2.726-1.144l-2.727-1.144c-0.734-0.308-1.03-1.192-0.629-1.88l0.033-0.057
					c0.399-0.685,1.308-0.865,1.939-0.384l2.376,1.813l-0.389-2.914c-0.106-0.79,0.509-1.493,1.307-1.493l0,0
					c0.798,0,1.413,0.703,1.307,1.493l-0.389,2.914l2.376-1.813c0.63-0.481,1.539-0.301,1.939,0.384l0.033,0.057
					c0.401,0.688,0.105,1.572-0.629,1.88l-2.727,1.144l2.726,1.144c0.734,0.308,1.03,1.192,0.629,1.88l-0.033,0.056
					C227.581,154.262,226.673,154.442,226.042,153.962z"/>
			</g>
			<g>
				<path style="fill:#263238;" d="M247.249,153.962l-2.376-1.812l0.389,2.914c0.106,0.79-0.509,1.493-1.307,1.493l0,0
					c-0.798,0-1.412-0.702-1.307-1.493l0.389-2.914l-2.376,1.812c-0.63,0.48-1.539,0.3-1.938-0.384l-0.033-0.056
					c-0.401-0.688-0.106-1.572,0.629-1.88l2.727-1.144l-2.727-1.144c-0.734-0.308-1.03-1.192-0.629-1.88l0.033-0.057
					c0.399-0.685,1.308-0.865,1.939-0.384l2.376,1.813l-0.389-2.914c-0.106-0.79,0.509-1.493,1.307-1.493l0,0
					c0.798,0,1.412,0.703,1.307,1.493l-0.389,2.914l2.376-1.813c0.63-0.481,1.539-0.301,1.939,0.384l0.033,0.057
					c0.401,0.688,0.105,1.572-0.629,1.88l-2.727,1.144l2.726,1.144c0.734,0.308,1.03,1.192,0.629,1.88l-0.033,0.056
					C248.788,154.262,247.879,154.442,247.249,153.962z"/>
			</g>
			<g>
				<path style="fill:#263238;" d="M268.456,153.962l-2.376-1.812l0.389,2.914c0.106,0.79-0.509,1.493-1.307,1.493l0,0
					c-0.797,0-1.412-0.702-1.307-1.493l0.389-2.914l-2.376,1.812c-0.63,0.48-1.539,0.3-1.938-0.384l-0.033-0.056
					c-0.401-0.688-0.106-1.572,0.629-1.88l2.726-1.144l-2.727-1.144c-0.734-0.308-1.03-1.192-0.629-1.88l0.033-0.057
					c0.399-0.685,1.309-0.865,1.939-0.384l2.376,1.813l-0.389-2.914c-0.106-0.79,0.509-1.493,1.307-1.493l0,0
					c0.797,0,1.412,0.703,1.307,1.493l-0.389,2.914l2.376-1.813c0.63-0.481,1.539-0.301,1.939,0.384l0.033,0.057
					c0.401,0.688,0.105,1.572-0.629,1.88l-2.727,1.144l2.726,1.144c0.734,0.308,1.03,1.192,0.629,1.88l-0.033,0.056
					C269.995,154.262,269.086,154.442,268.456,153.962z"/>
			</g>
			<g>
				<path style="fill:#FFFFFF;stroke:#263238;stroke-linecap:round;stroke-linejoin:round;stroke-miterlimit:10;" d="
					M303.91,150.497c0,0-4.319,5.398-9.647,5.398c-5.328,0-9.647-5.398-9.647-5.398s4.319-5.398,9.647-5.398
					C299.591,145.099,303.91,150.497,303.91,150.497z"/>
				<path style="fill:#999999;stroke:#263238;stroke-linecap:round;stroke-linejoin:round;stroke-miterlimit:10;" d="
					M297.577,150.497c0,1.831-1.484,3.315-3.315,3.315c-1.831,0-3.315-1.484-3.315-3.315c0-1.831,1.484-3.315,3.315-3.315
					C296.093,147.182,297.577,148.666,297.577,150.497z"/>
			</g>
		</g>
		<g>
			<path style="fill:#92E3A9;stroke:#263238;stroke-linecap:round;stroke-linejoin:round;stroke-miterlimit:10;" d="
				M194.485,202.865h-8.767c-2.194,0-3.973-1.779-3.973-3.973v-11.296c0-2.194,1.779-3.973,3.973-3.973h8.767
				c2.194,0,3.973,1.779,3.973,3.973v11.296C198.458,201.086,196.679,202.865,194.485,202.865z"/>
			<path style="fill:#92E3A9;stroke:#263238;stroke-linecap:round;stroke-linejoin:round;stroke-miterlimit:10;" d="
				M213.118,202.865h-8.767c-2.194,0-3.973-1.779-3.973-3.973v-11.296c0-2.194,1.779-3.973,3.973-3.973h8.767
				c2.194,0,3.973,1.779,3.973,3.973v11.296C217.091,201.086,215.312,202.865,213.118,202.865z"/>
			<path style="fill:#92E3A9;stroke:#263238;stroke-linecap:round;stroke-linejoin:round;stroke-miterlimit:10;" d="M231.75,202.865
				h-8.767c-2.194,0-3.973-1.779-3.973-3.973v-11.296c0-2.194,1.779-3.973,3.973-3.973h8.767c2.194,0,3.973,1.779,3.973,3.973
				v11.296C235.723,201.086,233.945,202.865,231.75,202.865z"/>
			<path style="fill:#92E3A9;stroke:#263238;stroke-linecap:round;stroke-linejoin:round;stroke-miterlimit:10;" d="
				M250.383,202.865h-8.767c-2.194,0-3.973-1.779-3.973-3.973v-11.296c0-2.194,1.779-3.973,3.973-3.973h8.767
				c2.194,0,3.973,1.779,3.973,3.973v11.296C254.356,201.086,252.577,202.865,250.383,202.865z"/>
			<path style="fill:#92E3A9;stroke:#263238;stroke-linecap:round;stroke-linejoin:round;stroke-miterlimit:10;" d="
				M269.016,202.865h-8.767c-2.194,0-3.973-1.779-3.973-3.973v-11.296c0-2.194,1.779-3.973,3.973-3.973h8.767
				c2.194,0,3.973,1.779,3.973,3.973v11.296C272.989,201.086,271.21,202.865,269.016,202.865z"/>
			<path style="fill:#92E3A9;stroke:#263238;stroke-linecap:round;stroke-linejoin:round;stroke-miterlimit:10;" d="
				M287.648,202.865h-8.767c-2.194,0-3.973-1.779-3.973-3.973v-11.296c0-2.194,1.779-3.973,3.973-3.973h8.767
				c2.194,0,3.973,1.779,3.973,3.973v11.296C291.621,201.086,289.842,202.865,287.648,202.865z"/>
			<path style="fill:#92E3A9;stroke:#263238;stroke-linecap:round;stroke-linejoin:round;stroke-miterlimit:10;" d="
				M203.802,225.164h-8.767c-2.194,0-3.973-1.779-3.973-3.973v-11.296c0-2.194,1.779-3.973,3.973-3.973h8.767
				c2.194,0,3.973,1.779,3.973,3.973v11.296C207.775,223.385,205.996,225.164,203.802,225.164z"/>
			<path style="fill:#92E3A9;stroke:#263238;stroke-linecap:round;stroke-linejoin:round;stroke-miterlimit:10;" d="
				M222.434,225.164h-8.767c-2.194,0-3.973-1.779-3.973-3.973v-11.296c0-2.194,1.779-3.973,3.973-3.973h8.767
				c2.194,0,3.973,1.779,3.973,3.973v11.296C226.407,223.385,224.628,225.164,222.434,225.164z"/>
			<path style="fill:#92E3A9;stroke:#263238;stroke-linecap:round;stroke-linejoin:round;stroke-miterlimit:10;" d="
				M241.067,225.164h-8.767c-2.194,0-3.973-1.779-3.973-3.973v-11.296c0-2.194,1.779-3.973,3.973-3.973h8.767
				c2.194,0,3.973,1.779,3.973,3.973v11.296C245.04,223.385,243.261,225.164,241.067,225.164z"/>
			<path style="fill:#92E3A9;stroke:#263238;stroke-linecap:round;stroke-linejoin:round;stroke-miterlimit:10;" d="
				M259.699,225.164h-8.767c-2.194,0-3.973-1.779-3.973-3.973v-11.296c0-2.194,1.779-3.973,3.973-3.973h8.767
				c2.194,0,3.973,1.779,3.973,3.973v11.296C263.672,223.385,261.893,225.164,259.699,225.164z"/>
			<path style="fill:#92E3A9;stroke:#263238;stroke-linecap:round;stroke-linejoin:round;stroke-miterlimit:10;" d="
				M278.332,225.164h-8.767c-2.194,0-3.973-1.779-3.973-3.973v-11.296c0-2.194,1.779-3.973,3.973-3.973h8.767
				c2.194,0,3.973,1.779,3.973,3.973v11.296C282.305,223.385,280.526,225.164,278.332,225.164z"/>
			<path style="fill:#92E3A9;stroke:#263238;stroke-linecap:round;stroke-linejoin:round;stroke-miterlimit:10;" d="
				M194.485,247.463h-8.767c-2.194,0-3.973-1.779-3.973-3.973v-11.296c0-2.194,1.779-3.973,3.973-3.973h8.767
				c2.194,0,3.973,1.779,3.973,3.973v11.296C198.458,245.684,196.679,247.463,194.485,247.463z"/>
			<path style="fill:#92E3A9;stroke:#263238;stroke-linecap:round;stroke-linejoin:round;stroke-miterlimit:10;" d="
				M213.118,247.463h-8.767c-2.194,0-3.973-1.779-3.973-3.973v-11.296c0-2.194,1.779-3.973,3.973-3.973h8.767
				c2.194,0,3.973,1.779,3.973,3.973v11.296C217.091,245.684,215.312,247.463,213.118,247.463z"/>
			<path style="fill:#92E3A9;stroke:#263238;stroke-linecap:round;stroke-linejoin:round;stroke-miterlimit:10;" d="M231.75,247.463
				h-8.767c-2.194,0-3.973-1.779-3.973-3.973v-11.296c0-2.194,1.779-3.973,3.973-3.973h8.767c2.194,0,3.973,1.779,3.973,3.973
				v11.296C235.723,245.684,233.945,247.463,231.75,247.463z"/>
			<path style="fill:#92E3A9;stroke:#263238;stroke-linecap:round;stroke-linejoin:round;stroke-miterlimit:10;" d="
				M250.383,247.463h-8.767c-2.194,0-3.973-1.779-3.973-3.973v-11.296c0-2.194,1.779-3.973,3.973-3.973h8.767
				c2.194,0,3.973,1.779,3.973,3.973v11.296C254.356,245.684,252.577,247.463,250.383,247.463z"/>
			<path style="fill:#92E3A9;stroke:#263238;stroke-linecap:round;stroke-linejoin:round;stroke-miterlimit:10;" d="
				M269.016,247.463h-8.767c-2.194,0-3.973-1.779-3.973-3.973v-11.296c0-2.194,1.779-3.973,3.973-3.973h8.767
				c2.194,0,3.973,1.779,3.973,3.973v11.296C272.989,245.684,271.21,247.463,269.016,247.463z"/>
			<path style="fill:#92E3A9;stroke:#263238;stroke-linecap:round;stroke-linejoin:round;stroke-miterlimit:10;" d="
				M287.648,247.463h-8.767c-2.194,0-3.973-1.779-3.973-3.973v-11.296c0-2.194,1.779-3.973,3.973-3.973h8.767
				c2.194,0,3.973,1.779,3.973,3.973v11.296C291.621,245.684,289.842,247.463,287.648,247.463z"/>
			<path style="fill:#92E3A9;stroke:#263238;stroke-linecap:round;stroke-linejoin:round;stroke-miterlimit:10;" d="
				M203.801,269.762h-8.767c-2.194,0-3.973-1.779-3.973-3.973v-11.296c0-2.194,1.779-3.973,3.973-3.973h8.767
				c2.194,0,3.973,1.779,3.973,3.973v11.296C207.775,267.983,205.996,269.762,203.801,269.762z"/>
			<path style="fill:#92E3A9;stroke:#263238;stroke-linecap:round;stroke-linejoin:round;stroke-miterlimit:10;" d="
				M222.434,269.762h-8.767c-2.194,0-3.973-1.779-3.973-3.973v-11.296c0-2.194,1.779-3.973,3.973-3.973h8.767
				c2.194,0,3.973,1.779,3.973,3.973v11.296C226.407,267.983,224.628,269.762,222.434,269.762z"/>
			<path style="fill:#92E3A9;stroke:#263238;stroke-linecap:round;stroke-linejoin:round;stroke-miterlimit:10;" d="
				M241.066,269.762h-8.767c-2.194,0-3.973-1.779-3.973-3.973v-11.296c0-2.194,1.779-3.973,3.973-3.973h8.767
				c2.194,0,3.973,1.779,3.973,3.973v11.296C245.04,267.983,243.261,269.762,241.066,269.762z"/>
			<path style="fill:#92E3A9;stroke:#263238;stroke-linecap:round;stroke-linejoin:round;stroke-miterlimit:10;" d="
				M259.699,269.762h-8.767c-2.194,0-3.973-1.779-3.973-3.973v-11.296c0-2.194,1.779-3.973,3.973-3.973h8.767
				c2.194,0,3.973,1.779,3.973,3.973v11.296C263.672,267.983,261.893,269.762,259.699,269.762z"/>
			<path style="fill:#92E3A9;stroke:#263238;stroke-linecap:round;stroke-linejoin:round;stroke-miterlimit:10;" d="
				M278.332,269.762h-8.767c-2.194,0-3.973-1.779-3.973-3.973v-11.296c0-2.194,1.779-3.973,3.973-3.973h8.767
				c2.194,0,3.973,1.779,3.973,3.973v11.296C282.305,267.983,280.526,269.762,278.332,269.762z"/>
		</g>
		<g>
			
				<ellipse transform="matrix(0.469 -0.8832 0.8832 0.469 42.3231 258.8511)" style="fill:#FFFFFF;stroke:#263238;stroke-linecap:round;stroke-linejoin:round;stroke-miterlimit:10;" cx="236.433" cy="94.228" rx="27.855" ry="27.855"/>
			<path style="fill:#92E3A9;stroke:#263238;stroke-linecap:round;stroke-linejoin:round;stroke-miterlimit:10;" d="
				M236.433,122.083c6.334,0,12.171-2.118,16.85-5.678c-4.741-1.757-11.931-3.722-20.399-3.722c-5.479,0-10.468,1.159-14.624,2.646
				C223.139,119.535,229.487,122.083,236.433,122.083z"/>
			<path style="fill:#263238;stroke:#263238;stroke-linecap:round;stroke-linejoin:round;stroke-miterlimit:10;" d="M228.93,106.647
				c0,0-0.242-9.082-2.787-15.717c-2.545-6.635-3.999-16.451,5.726-17.815c9.725-1.363,13.582,0.255,19.151-0.182
				c10.697-0.839-1.091,11.452-1.091,11.452l-14.334,5.59C235.595,89.976,230.626,107.094,228.93,106.647z"/>
			<g>
				<defs>
					<path id="XMLID_13_" d="M228.284,109.287l2.525-10.327l7.032,2.121l2.11,8.378c0.409,1.626,1.511,3.005,3.025,3.725
						c1.9,0.904,3.006,1.764,3.006,1.764s-8.342,10.694-24.357,0c0,0,1.215-0.955,3.428-1.91
						C226.656,112.347,227.87,110.982,228.284,109.287z"/>
				</defs>
				<use xlink:href="#XMLID_13_"  style="overflow:visible;fill:#FFFFFF;"/>
				<clipPath id="XMLID_00000012435752819093637830000002614120398481616261_">
					<use xlink:href="#XMLID_13_"  style="overflow:visible;"/>
				</clipPath>
				
					<path style="clip-path:url(#XMLID_00000012435752819093637830000002614120398481616261_);fill:#263238;stroke:#263238;stroke-linecap:round;stroke-linejoin:round;stroke-miterlimit:10;" d="
					M250.152,84.712l0.914,6.126c0.096,0.647,0.043,1.307-0.156,1.93l-0.535,1.676l0.316,3.991c0.017,0.21,0.018,0.41,0.004,0.621
					c-0.134,2.047-1.124,11.826-7.031,12.275c-5.237,0.397-10.452-4.989-12.303-7.557c-0.462-0.641-0.791-1.359-0.987-2.124
					l-0.792-3.107c0,0-2.548,0.048-3.339-2.462c-0.791-2.509-2.108-4.131,0.434-5.382c2.543-1.251,3.444,2.284,3.444,2.284
					s0.658-4.135,1.355-5.316c0.614-1.041,2.86-2.299,3.524-3.308c0.363-0.553,0.895-2.488,0.895-2.488s7.736,1.491,13.606,0.295
					L250.152,84.712z"/>
				
					<use xlink:href="#XMLID_13_"  style="overflow:visible;fill:none;stroke:#263238;stroke-linecap:round;stroke-linejoin:round;stroke-miterlimit:10;"/>
			</g>
			<path style="fill:#FFFFFF;stroke:#263238;stroke-linecap:round;stroke-linejoin:round;stroke-miterlimit:10;" d="M250.152,83.621
				l0.914,6.126c0.096,0.647,0.043,1.307-0.156,1.93l-0.535,1.676l0.316,3.991c0.017,0.21,0.018,0.41,0.004,0.621
				c-0.134,2.047-1.124,11.826-7.031,12.275c-5.237,0.397-10.452-4.989-12.303-7.557c-0.462-0.641-0.791-1.359-0.987-2.124
				l-0.792-3.106c0,0-2.548,0.048-3.339-2.462c-0.791-2.509-2.108-4.131,0.434-5.382c2.543-1.251,3.444,2.284,3.444,2.284
				s0.658-4.135,1.355-5.316c0.614-1.041,2.86-2.299,3.524-3.308c0.363-0.553,0.895-2.488,0.895-2.488s7.736,1.491,13.606,0.295
				L250.152,83.621z"/>
			<path style="fill:none;stroke:#263238;stroke-width:0.75;stroke-linecap:round;stroke-linejoin:round;stroke-miterlimit:10;" d="
				M246.004,93.855l1.914,4.633c0.27,0.653-0.181,1.378-0.887,1.425l-2.393,0.158"/>
			<path style="fill:none;stroke:#263238;stroke-width:0.75;stroke-linecap:round;stroke-linejoin:round;stroke-miterlimit:10;" d="
				M240.048,101.797c1.465,2.346,3.326,1.805,4.473,1.113"/>
			<g>
				<path style="fill:none;stroke:#7F7F7F;stroke-width:0.75;stroke-linecap:round;stroke-linejoin:round;" d="M239.958,76.297
					c-10.362-1.182-12.27,2.909-12.27,2.909"/>
				<path style="fill:none;stroke:#7F7F7F;stroke-width:0.75;stroke-linecap:round;stroke-linejoin:round;" d="M251.369,75.165
					c-1.33,0.239-4.363,1.174-9.084,1.174"/>
			</g>
			<g>
				<path style="fill:none;stroke:#7F7F7F;stroke-width:0.75;stroke-linecap:round;stroke-linejoin:round;" d="M242.003,79.276
					c2.948,0.035,8.905-0.546,11.291-3.265"/>
				<path style="fill:none;stroke:#7F7F7F;stroke-width:0.75;stroke-linecap:round;stroke-linejoin:round;" d="M237.64,78.783
					c0,0,0.923,0.226,2.322,0.373"/>
			</g>
			<path style="fill:#263238;" d="M241.843,93.183c0,0.795-0.322,1.439-0.72,1.439c-0.397,0-0.719-0.645-0.719-1.439
				c0-0.795,0.322-1.439,0.719-1.439C241.521,91.744,241.843,92.388,241.843,93.183z"/>
			<path style="fill:#263238;" d="M248.622,92.993c0,0.69-0.28,1.249-0.625,1.249c-0.345,0-0.625-0.559-0.625-1.249
				c0-0.69,0.28-1.25,0.625-1.25C248.343,91.744,248.622,92.303,248.622,92.993z"/>
			<path style="fill:none;stroke:#263238;stroke-width:0.75;stroke-linecap:round;stroke-linejoin:round;stroke-miterlimit:10;" d="
				M238.765,91.057c0,0,0.862-2.562,2.358-2.499c1.496,0.062,2.169,1.499,2.169,1.499"/>
			<path style="fill:none;stroke:#263238;stroke-width:0.75;stroke-linecap:round;stroke-linejoin:round;stroke-miterlimit:10;" d="
				M249.089,89.991c-0.275-0.695-0.711-1.468-1.281-1.433c-1.028,0.062-1.49,1.499-1.49,1.499"/>
		</g>
	</g>
</g>
<g id="Character">
	<g>
		<g>
			<defs>
				<path id="XMLID_5_" d="M94.092,211.422c2.039-4.863-2.89-19.56-5.077-25.588c-0.551-1.518-2.457-1.996-3.659-0.918
					c-1.975,1.771-4.387,5.212-4.786,11.597c0,0-15.255,26.87-15.256,39.128c0,11.492,22.719,35.415,22.719,35.415
					s3.978-1.04,6.059-4.854c0,0-8.494-20.976-15.082-29.991C79.01,236.212,91.838,216.796,94.092,211.422z"/>
			</defs>
			<use xlink:href="#XMLID_5_"  style="overflow:visible;fill:#263238;"/>
			<clipPath id="XMLID_00000005254965609230836460000013748888719142122408_">
				<use xlink:href="#XMLID_5_"  style="overflow:visible;"/>
			</clipPath>
			<path style="opacity:0.2;clip-path:url(#XMLID_00000005254965609230836460000013748888719142122408_);" d="M91.543,219.281
				c0,0-7.271-15.486-10.045-14.1c-2.774,1.387-9.812,27.506-7.102,31.667c2.71,4.161,17.493,33.53,21.197,32.945
				C99.296,269.207,91.543,219.281,91.543,219.281z"/>
			
				<use xlink:href="#XMLID_5_"  style="overflow:visible;fill:none;stroke:#263238;stroke-linecap:round;stroke-linejoin:round;stroke-miterlimit:10;"/>
		</g>
		<path style="fill:#FFFFFF;stroke:#263238;stroke-linecap:round;stroke-linejoin:round;stroke-miterlimit:10;" d="M92.159,264.296
			l3.435,5.497c0,0,10.673,3.337,11.786,6.871c1.113,3.534-4.358,8.442-7.61,7.46c-3.253-0.982-8.553-10.798-8.553-10.798
			l-4.319-5.031L92.159,264.296z"/>
		<path style="fill:#92E3A9;stroke:#263238;stroke-linecap:round;stroke-linejoin:round;stroke-miterlimit:10;" d="M85.428,269.67
			l2.312,2.658c0,0,4.895-1.082,7.764-5.915l-1.407-3.331C94.096,263.082,92.131,267.705,85.428,269.67z"/>
		<path style="fill:#263238;stroke:#263238;stroke-linecap:round;stroke-linejoin:round;stroke-miterlimit:10;" d="M99.125,416.85
			l-2.977,12.45c-0.427,1.784,0.926,3.499,2.761,3.499h17.496c1.763,0,3.109-1.589,2.801-3.324c-0.284-1.6-1.048-3.43-2.919-4.65
			c-3.987-2.6-5.894-10.748-5.894-10.748L99.125,416.85z"/>
		<path style="fill:#263238;stroke:#263238;stroke-linecap:round;stroke-linejoin:round;stroke-miterlimit:10;" d="M142.29,418.93
			c0,0-2.834,4.07-3.251,11.327c-0.079,1.381,1.048,2.541,2.431,2.541h31.072c2.755,0,3.986-3.467,1.842-5.197
			c-0.989-0.797-2.431-1.451-4.53-1.737c-7.628-1.04-14.376-4.507-15.596-9.015L142.29,418.93z"/>
		<g>
			<defs>
				<path id="XMLID_4_" d="M94.092,266.203c0,0-3.52,14.562-2.133,45.997l0.905,35.596c0,0-5.065,24.963,4.643,70.267
					c0,0,2.964,6.701,15.089-1.679l1.387-69.05l12.649-76.277L94.092,266.203z"/>
			</defs>
			<use xlink:href="#XMLID_4_"  style="overflow:visible;fill:#999999;"/>
			<clipPath id="XMLID_00000112613753413991539600000016995514794935420854_">
				<use xlink:href="#XMLID_4_"  style="overflow:visible;"/>
			</clipPath>
			<path style="opacity:0.2;clip-path:url(#XMLID_00000112613753413991539600000016995514794935420854_);" d="M119.25,298.331
				c0,0-5.16,20.572-7.241,32.591c-2.08,12.02-14.448,11.095-15.941,18.954c-1.492,7.859,13.019-1.387,11.591,27.044
				c-1.428,28.431-6.477,43.905,1.479,43.68c7.956-0.225,8.187-22.646,8.187-22.646l4.854-68.187v-9.477l1.156-18.029
				L119.25,298.331z"/>
			
				<use xlink:href="#XMLID_4_"  style="overflow:visible;fill:none;stroke:#263238;stroke-linecap:round;stroke-linejoin:round;stroke-miterlimit:10;"/>
		</g>
		<g>
			<path style="fill:none;stroke:#263238;stroke-linecap:round;stroke-linejoin:round;stroke-miterlimit:10;" d="M96.067,355.521
				c-0.502,0.664-1,1.4-1.491,2.214"/>
			<path style="fill:none;stroke:#263238;stroke-linecap:round;stroke-linejoin:round;stroke-miterlimit:10;" d="M96.698,347.68
				c0,0,11.603-2.774,12.389,0c0.684,2.414-5.591-0.424-11.774,6.339"/>
		</g>
		<g>
			<defs>
				<path id="XMLID_3_" d="M116.807,303.326c9.014,14.537,21.672,43.121,21.672,43.121s-1.905,3.313,0,8.861
					c0,0-5.029,19.314,2.252,65.478c0,0,6.241,3.978,15.255-3.015c0,0,4.507-69.397,2.774-78.759
					c-1.734-9.361-18.029-71.185-18.029-71.185h-35.747"/>
			</defs>
			<use xlink:href="#XMLID_3_"  style="overflow:visible;fill:#999999;"/>
			<clipPath id="XMLID_00000051362626918297209550000007932961945982328735_">
				<use xlink:href="#XMLID_3_"  style="overflow:visible;"/>
			</clipPath>
			<path style="opacity:0.2;clip-path:url(#XMLID_00000051362626918297209550000007932961945982328735_);" d="M114.783,304.341
				c0,0,5.45,2.774,15.9,0c10.45-2.774,1.782,9.015,5.25,21.843c3.467,12.828,13.175,18.723,11.615,24.27
				c-1.56,5.548-6.179,6.934-7.163,21.843c-0.984,14.909,12.085,42.449,6.937,48.095c-5.148,5.646-17.629-7.703-17.629-7.703
				l-10.442-70.675L114.783,304.341z"/>
			
				<use xlink:href="#XMLID_3_"  style="overflow:visible;fill:none;stroke:#263238;stroke-linecap:round;stroke-linejoin:round;stroke-miterlimit:10;"/>
		</g>
		<g>
			<path style="fill:none;stroke:#263238;stroke-linecap:round;stroke-linejoin:round;stroke-miterlimit:10;" d="M145.104,348.901
				c4.102-0.621,9.36-1.053,9.148,0.86c-0.347,3.12-7.671-0.047-12.135,5.201"/>
			<path style="fill:none;stroke:#263238;stroke-linecap:round;stroke-linejoin:round;stroke-miterlimit:10;" d="M140.384,349.761
				c0,0,0.716-0.157,1.823-0.366"/>
		</g>
		<path style="fill:#FFFFFF;stroke:#263238;stroke-linecap:round;stroke-linejoin:round;stroke-miterlimit:10;" d="M168.982,169.721
			l0.647-6.605c0,0-1.295-6.865-0.647-9.196c0.647-2.331,6.346-17.096,8.16-16.449c1.813,0.648-2.72,8.678-2.59,11.009
			c0,0,2.412,0.13,3.019,1.684c0,0,2.291,0.389,2.421,2.461c0,0,1.943,1.166,1.684,3.367c-0.259,2.202-4.663,8.16-4.663,8.16
			l0.259,8.548L168.982,169.721z"/>
		<path style="fill:#FFFFFF;stroke:#263238;stroke-linecap:round;stroke-linejoin:round;stroke-miterlimit:10;" d="M130.663,158.572
			c0,0-2.551-5.054-2.924-6.886c-0.265-1.303,0.267-4.016,0-5.318c-0.624-3.047-4.89-11.438-4.89-11.438s-0.154-0.422-0.761-0.898
			l-2.494,3.078h-6.789l-10.353,13.679l5.102,12.278l-1.499,1.771c0.918,0.904,1.499,1.425,1.499,1.425l-1.5,8.91l14.603,1.481
			l0.386-5.66h4.438c1.248,0,2.259-1.011,2.259-2.259v-7.737l2.039-0.578C130.57,160.195,130.985,159.328,130.663,158.572z"/>
		<path style="fill:#263238;stroke:#263238;stroke-linecap:round;stroke-linejoin:round;stroke-miterlimit:10;" d="M95.346,154.123
			c5.886,8.654,12.209,12.139,12.209,12.139l2.488-6.192c0,0-5.047-0.533-4.253-5.385c1.174-7.171,7.016-0.727,7.016-0.727
			l1.262-5.536c0,0,3.115-3.343,2.897-4.515c-0.218-1.172-0.669-2.509-0.669-2.509s11.254-10.708,10.064-16.673
			c0,0-9.371,1.897-20.549,3.953C92.176,131.184,88.705,144.359,95.346,154.123z"/>
		<path style="fill:#263238;" d="M125.481,170.993c0,0-7.832-1.329-10.825-5.009c-2.993-3.68-0.604,0.255,0.796,2.504
			C118.455,173.316,121.043,170.993,125.481,170.993z"/>
		<path style="fill:none;stroke:#263238;stroke-width:0.75;stroke-linecap:round;stroke-linejoin:round;stroke-miterlimit:10;" d="
			M120.658,159.741c0,0,1.686,2.047,4.384,1.651"/>
		<path style="fill:#263238;" d="M126.359,150.171c0,0.695-0.262,1.259-0.586,1.259c-0.324,0-0.586-0.564-0.586-1.259
			c0-0.695,0.262-1.259,0.586-1.259C126.097,148.911,126.359,149.475,126.359,150.171z"/>
		<path style="fill:none;stroke:#263238;stroke-width:0.75;stroke-linecap:round;stroke-linejoin:round;stroke-miterlimit:10;" d="
			M126.247,146.488c0,0-2.898-0.648-3.999,2.117"/>
		<path style="fill:#92E3A9;stroke:#263238;stroke-linecap:round;stroke-linejoin:round;stroke-miterlimit:10;" d="M98.431,179.062
			c0,0,0.048-6.841,11.788-5.779c14.331,1.297,20.109,8.635,20.109,8.635L98.431,179.062z"/>
		<g>
			<defs>
				<path id="XMLID_2_" d="M121.545,177.827c8.938,0.974,24.501,3.156,23.576,27.159c-0.925,24.003-4.392,62.841-4.392,62.841
					s-44.664,19.088-49.696,1.38c0,0,2.312-19.963-5.085-51.125C78.553,186.921,81.866,173.503,121.545,177.827z"/>
			</defs>
			<use xlink:href="#XMLID_2_"  style="overflow:visible;fill:#263238;"/>
			<clipPath id="XMLID_00000163780636275300145930000014767171790060650373_">
				<use xlink:href="#XMLID_2_"  style="overflow:visible;"/>
			</clipPath>
			<path style="opacity:0.2;clip-path:url(#XMLID_00000163780636275300145930000014767171790060650373_);" d="M147.383,245.169
				c0,0-5.837,1.404-23.692-8.321c-28.028-15.267-31.144-37.68-39.035-33.982c-7.891,3.698,7.777,75.954,7.777,75.954l29.001,1.817
				h26.873L147.383,245.169z"/>
			
				<use xlink:href="#XMLID_2_"  style="overflow:visible;fill:none;stroke:#263238;stroke-linecap:round;stroke-linejoin:round;stroke-miterlimit:10;"/>
		</g>
		<g>
			<path style="fill:none;stroke:#7F7F7F;stroke-width:0.75;stroke-linecap:round;stroke-linejoin:round;" d="M70.012,235.203
				c-0.502,0.119-1.031,0.266-1.588,0.446"/>
			<path style="fill:none;stroke:#7F7F7F;stroke-width:0.75;stroke-linecap:round;stroke-linejoin:round;" d="M77.383,235.649
				c0,0-1.881-1.343-5.972-0.72"/>
		</g>
		<g>
			<defs>
				<path id="XMLID_1_" d="M125.027,178.269c0,0,15.472,0.099,22.406,4.26c0,0,12.251-2.08,17.105,0l4.392-16.411
					c0,0,5.778-2.774,8.552,1.387c0,0,2.08,24.964-1.387,27.044c-3.467,2.08-30.934,8.317-30.934,8.317
					S127.584,197.586,125.027,178.269z"/>
			</defs>
			<use xlink:href="#XMLID_1_"  style="overflow:visible;fill:#263238;"/>
			<clipPath id="XMLID_00000176010953565448196200000010810101483723905727_">
				<use xlink:href="#XMLID_1_"  style="overflow:visible;"/>
			</clipPath>
			<path style="opacity:0.2;clip-path:url(#XMLID_00000176010953565448196200000010810101483723905727_);" d="M144.947,198.625
				c0,0-0.809-6.427,10.979-5.599c11.788,0.828,21.004,1.06,22.175-4.488c1.171-5.547,14.115-15.153,9.954,2.825
				c-4.161,17.978-4.161,17.978-4.161,17.978l-24.738,1.626L144.947,198.625z"/>
			
				<use xlink:href="#XMLID_1_"  style="overflow:visible;fill:none;stroke:#263238;stroke-linecap:round;stroke-linejoin:round;stroke-miterlimit:10;"/>
		</g>
		<g>
			<path style="fill:none;stroke:#7F7F7F;stroke-width:0.75;stroke-linecap:round;stroke-linejoin:round;" d="M167.379,183.763
				c0.936,0.712,2.094,1.893,3.4,3.851"/>
			<path style="fill:none;stroke:#7F7F7F;stroke-width:0.75;stroke-linecap:round;stroke-linejoin:round;" d="M164.885,182.692
				c0,0,0.393-0.045,1.088,0.24"/>
		</g>
		<g>
			<path style="fill:none;stroke:#7F7F7F;stroke-width:0.75;stroke-linecap:round;stroke-linejoin:round;" d="M85.585,210.967
				c-0.538-5.175-2.006-14.689-1.42-21.262"/>
			<path style="fill:none;stroke:#7F7F7F;stroke-width:0.75;stroke-linecap:round;stroke-linejoin:round;" d="M81.498,198.625
				c0,0,2.706,16.033,4.011,16.033"/>
		</g>
		
			<line style="fill:none;stroke:#7F7F7F;stroke-width:0.75;stroke-linecap:round;stroke-linejoin:round;" x1="91.206" y1="258.055" x2="91.206" y2="267.035"/>
		<path style="fill:#999999;stroke:#263238;stroke-linecap:round;stroke-linejoin:round;stroke-miterlimit:10;" d="M106.448,280.636
			c0,0,1.456,10.158,5.907,16.424"/>
		<path style="fill:#92E3A9;stroke:#263238;stroke-linecap:round;stroke-linejoin:round;stroke-miterlimit:10;" d="M167.639,164.225
			l-1.023,3.727c0,0,6.761-1.604,12.742,1.604l-0.607-4.344C178.752,165.212,174.903,162.318,167.639,164.225z"/>
		<g>
			<path style="fill:none;stroke:#7F7F7F;stroke-width:0.75;stroke-linecap:round;stroke-linejoin:round;" d="M130.714,260.127
				c-4.878,2.168-14.533,4.063-33.503,2.193"/>
			<path style="fill:none;stroke:#7F7F7F;stroke-width:0.75;stroke-linecap:round;stroke-linejoin:round;" d="M135.586,256.148
				c0,0-0.303,1.011-1.914,2.262"/>
		</g>
		<g>
			<path style="fill:none;stroke:#7F7F7F;stroke-width:0.75;stroke-linecap:round;stroke-linejoin:round;" d="M149.027,182.966
				c2.632,1.63,5.264,3.259,7.896,4.889"/>
			<g>
				<path style="fill:none;stroke:#7F7F7F;stroke-width:0.75;stroke-linecap:round;stroke-linejoin:round;" d="M136.676,224.074
					c3.578-4.411,7.615-10.372,8.978-21.013"/>
				<path style="fill:none;stroke:#7F7F7F;stroke-width:0.75;stroke-linecap:round;stroke-linejoin:round;" d="M132.075,222.62
					c-6.385,7.37-14.441,13.297-23.412,17.125"/>
				<path style="fill:none;stroke:#7F7F7F;stroke-width:0.75;stroke-linecap:round;stroke-linejoin:round;" d="M136.045,217.545
					c-0.757,1.076-1.548,2.128-2.371,3.156"/>
				<path style="fill:none;stroke:#7F7F7F;stroke-width:0.75;stroke-linecap:round;stroke-linejoin:round;" d="M138.411,213.925
					c-0.383,0.633-0.777,1.258-1.183,1.877"/>
				<path style="fill:none;stroke:#7F7F7F;stroke-width:0.75;stroke-linecap:round;stroke-linejoin:round;" d="M95.177,252.032
					c10.042,4.613,21.46,6.176,32.372,4.432"/>
			</g>
		</g>
		<g>
			<path style="fill:none;stroke:#7F7F7F;stroke-width:0.75;stroke-linecap:round;stroke-linejoin:round;" d="M122.248,127.817
				c1.058-0.469,2.047-1.009,2.938-1.647"/>
			<path style="fill:none;stroke:#7F7F7F;stroke-width:0.75;stroke-linecap:round;stroke-linejoin:round;" d="M97.887,151.43
				c0,0-5.547-10.177,0.867-15.725c4.89-4.229,13.604-4.63,20.582-6.809"/>
		</g>
		<g>
			<path style="fill:none;stroke:#7F7F7F;stroke-width:0.75;stroke-linecap:round;stroke-linejoin:round;" d="M102.564,144.199
				c-0.458-1.844-0.389-3.877,1.217-5.399c3.814-3.615,14.929-3.962,20.467-9.509"/>
			<path style="fill:none;stroke:#7F7F7F;stroke-width:0.75;stroke-linecap:round;stroke-linejoin:round;" d="M104.821,148.911
				c0,0-0.607-0.812-1.222-2.021"/>
		</g>
	</g>
</g>
</svg>
